<?xml version="1.0" standalone="no"?>
<!DOCTYPE svg PUBLIC "-//W3C//DTD SVG 20010904//EN"
 "http://www.w3.org/TR/2001/REC-SVG-20010904/DTD/svg10.dtd">
<svg version="1.0" xmlns="http://www.w3.org/2000/svg"
 width="16.000000pt" height="16.000000pt" viewBox="0 0 16.000000 16.000000"
 preserveAspectRatio="xMidYMid meet">
<metadata>
Created by potrace 1.11, written by Peter Selinger 2001-2013
</metadata>
<g transform="translate(0.000000,16.000000) scale(0.000800,-0.000800)"
fill="#000000" stroke="none">
<path d="M9595 13344 c-758 -32 -1235 -80 -1850 -184 -2371 -403 -4579 -1463
-6445 -3094 -325 -284 -733 -686 -996 -981 -158 -178 -305 -359 -296 -366 18
-16 1405 -949 1407 -947 2 2 33 68 71 148 102 217 211 420 357 665 l132 220
11 -110 c47 -444 150 -783 328 -1075 333 -545 928 -889 1660 -959 152 -15
11884 -15 12046 -1 657 60 1230 351 1569 800 246 325 399 756 437 1232 4 48
10 85 14 83 10 -6 177 -283 266 -440 59 -105 222 -428 265 -523 l14 -33 707
474 708 474 -103 124 c-227 273 -642 702 -962 995 -1512 1382 -3359 2426
-5270 2979 -991 287 -1906 441 -2985 505 -177 11 -938 20 -1085 14z m887 -264
c1705 -86 3168 -513 4508 -1318 973 -583 1887 -1406 2577 -2317 132 -174 173
-312 173 -584 0 -268 -51 -479 -180 -739 -109 -219 -213 -366 -367 -520 -284
-282 -645 -447 -1103 -504 -156 -19 -12065 -19 -12220 0 -646 81 -1103 383
-1403 927 -146 266 -227 561 -227 828 0 184 49 397 122 527 88 157 486 627
818 964 742 755 1531 1330 2445 1781 1157 570 2400 882 3800 954 236 12 824
12 1057 1z"/>
<path d="M8416 9707 c-302 -614 -458 -920 -477 -937 -36 -32 -268 -158 -401
-218 -158 -71 -238 -63 -254 25 -4 19 -2 52 5 72 6 21 128 283 271 584 143
300 260 551 260 557 0 7 -88 10 -264 10 l-265 0 -41 -74 -40 -74 -61 40 c-163
109 -417 128 -664 51 -398 -125 -739 -467 -862 -867 -52 -169 -40 -385 26
-502 155 -270 530 -299 912 -71 121 72 138 73 185 6 80 -110 187 -159 348
-159 50 0 120 7 155 15 89 21 254 88 389 156 63 33 116 59 118 59 2 0 -18 -45
-46 -100 -27 -55 -50 -104 -50 -110 0 -6 92 -10 265 -10 l266 0 133 273 133
272 121 77 c67 42 130 79 140 82 41 13 61 -22 108 -192 106 -388 131 -440 242
-494 58 -29 72 -32 155 -31 57 0 126 9 180 22 114 27 498 155 648 215 l116 46
65 -62 c118 -115 266 -180 481 -212 442 -65 935 63 1325 346 46 33 84 58 86
57 1 -2 8 -29 15 -61 28 -128 109 -236 221 -292 94 -47 163 -60 285 -53 158 9
308 61 471 162 83 52 115 56 147 18 71 -86 106 -116 165 -145 59 -29 77 -33
168 -36 126 -5 214 13 363 73 107 43 273 124 346 169 l41 25 28 -55 c35 -66
117 -144 189 -177 191 -90 452 -52 714 103 56 33 113 60 125 60 17 0 43 -21
88 -71 48 -55 80 -79 129 -103 64 -30 70 -31 201 -31 130 0 139 2 244 38 210
72 490 223 573 309 l32 33 -51 90 c-28 50 -52 92 -54 93 -1 2 -22 -9 -46 -25
-118 -80 -289 -164 -375 -183 -57 -13 -105 1 -123 35 -32 60 -17 100 264 689
146 307 266 560 266 562 0 2 -120 4 -267 4 l-268 0 -38 -70 c-21 -39 -43 -70
-48 -70 -6 0 -25 11 -43 25 -155 118 -438 139 -700 51 -426 -143 -789 -548
-860 -959 -17 -98 -22 -103 -181 -181 -183 -91 -256 -103 -305 -51 -19 20 -22
32 -18 78 4 47 69 187 472 1018 258 530 471 970 473 977 4 10 -50 12 -263 10
l-269 -3 -245 -482 c-236 -464 -246 -482 -265 -467 -115 83 -211 114 -371 121
-185 8 -319 -23 -519 -122 -135 -67 -253 -154 -365 -271 -92 -96 -132 -150
-231 -314 -210 -352 -434 -538 -742 -615 -332 -84 -559 -65 -692 57 -46 41
-85 102 -74 112 2 2 58 25 124 51 659 262 1043 607 1023 918 -6 87 -29 137
-91 194 -52 48 -79 63 -167 93 -91 31 -305 39 -447 16 -298 -47 -584 -196
-797 -416 -215 -222 -311 -442 -310 -712 l1 -127 -99 -46 c-125 -59 -218 -91
-336 -116 -149 -31 -202 -5 -241 119 -18 58 -99 456 -115 567 l-6 40 446 290
c245 160 448 293 450 298 3 4 -118 7 -268 7 l-273 0 -348 -216 c-359 -222
-407 -245 -433 -209 -8 11 -14 31 -14 45 0 15 128 287 285 605 157 318 285
579 285 581 0 2 -120 4 -267 4 l-268 0 -449 -913z m2928 -108 c28 -13 56 -64
56 -103 0 -141 -287 -452 -524 -567 -176 -86 -244 -53 -196 92 56 167 186 355
313 455 69 54 164 108 217 125 38 11 106 10 134 -2z m-4392 -111 c51 -39 72
-89 76 -184 9 -193 -90 -406 -278 -595 -89 -89 -119 -112 -190 -148 -191 -94
-326 -50 -361 117 -40 196 116 523 339 708 116 96 206 135 308 131 59 -2 77
-7 106 -29z m6514 13 c102 -62 129 -206 73 -388 -90 -291 -370 -577 -588 -599
-35 -4 -72 -2 -94 5 -47 16 -103 79 -118 133 -25 94 6 270 71 398 101 200 296
394 450 450 73 26 165 26 206 1z m2177 -5 c74 -31 111 -105 111 -221 -1 -344
-386 -796 -659 -773 -72 6 -118 39 -152 106 -24 49 -25 60 -21 150 7 128 52
254 136 386 59 92 186 225 266 281 112 77 239 105 319 71z"/>
<path d="M4198 10483 c-33 -69 -77 -164 -98 -210 l-39 -83 483 -2 482 -3 -498
-1013 c-274 -558 -498 -1016 -498 -1018 0 -2 145 -3 322 -2 l323 3 500 1017
500 1018 444 2 444 3 88 189 c49 104 91 197 94 207 6 18 -29 19 -1240 19
l-1246 0 -61 -127z"/>
</g>
</svg>
